<?xml version="1.0" encoding="utf-8"?>
<svg xmlns="http://www.w3.org/2000/svg" xmlns:xlink="http://www.w3.org/1999/xlink" style="margin: auto; background: none; display: block; shape-rendering: auto;" width="247px" height="247px" viewBox="0 0 100 100" preserveAspectRatio="xMidYMid">
<g transform="translate(50 50)">
  <g transform="scale(0.56)">
    <g transform="translate(-50 -50)">
      <g>
        <animateTransform attributeName="transform" type="rotate" repeatCount="indefinite" values="0 50 50;360 50 50" keyTimes="0;1" dur="0.9615384615384615s"></animateTransform>
        <path fill-opacity="0.92" fill="#8f2222" d="M50 50L50 0A50 50 0 0 1 100 50Z"></path>
      </g>
      <g>
        <animateTransform attributeName="transform" type="rotate" repeatCount="indefinite" values="0 50 50;360 50 50" keyTimes="0;1" dur="1.282051282051282s"></animateTransform>
        <path fill-opacity="0.92" fill="#bd7858" d="M50 50L50 0A50 50 0 0 1 100 50Z" transform="rotate(90 50 50)"></path>
      </g>
      <g>
        <animateTransform attributeName="transform" type="rotate" repeatCount="indefinite" values="0 50 50;360 50 50" keyTimes="0;1" dur="1.923076923076923s"></animateTransform>
        <path fill-opacity="0.92" fill="#4d81a8" d="M50 50L50 0A50 50 0 0 1 100 50Z" transform="rotate(180 50 50)"></path>
      </g>
      <g>
        <animateTransform attributeName="transform" type="rotate" repeatCount="indefinite" values="0 50 50;360 50 50" keyTimes="0;1" dur="3.846153846153846s"></animateTransform>
        <path fill-opacity="0.92" fill="#80b174" d="M50 50L50 0A50 50 0 0 1 100 50Z" transform="rotate(270 50 50)"></path>
      </g>
    </g>
  </g>
</g>
<!-- [ldio] generated by https://loading.io/ --></svg>